<?xml version="1.0" standalone="no"?>
<!DOCTYPE svg PUBLIC "-//W3C//DTD SVG 20010904//EN"
 "http://www.w3.org/TR/2001/REC-SVG-20010904/DTD/svg10.dtd">
<svg version="1.0" xmlns="http://www.w3.org/2000/svg"
 width="32.000000pt" height="32.000000pt" viewBox="0 0 32.000000 32.000000"
 preserveAspectRatio="xMidYMid meet">

<g transform="translate(0.000000,32.000000) scale(0.100000,-0.100000)"
fill="#000000" stroke="none">
<path d="M190 310 c-11 -7 -17 -36 -21 -107 -4 -54 -10 -111 -14 -126 -6 -22
-3 -33 15 -53 28 -29 63 -31 90 -4 21 21 27 74 10 85 -5 3 -10 48 -10 99 0 93
-8 116 -39 116 -9 0 -23 -5 -31 -10z m51 -110 c4 -52 10 -107 14 -123 9 -33
-8 -57 -41 -57 -32 0 -53 43 -36 71 7 11 12 56 12 107 0 92 4 105 30 100 12
-3 16 -24 21 -98z"/>
<path d="M210 137 c0 -21 -6 -46 -12 -57 -15 -24 1 -46 27 -37 13 6 15 16 9
59 -8 64 -24 87 -24 35z"/>
<path d="M288 268 c9 -9 15 -9 24 0 9 9 7 12 -12 12 -19 0 -21 -3 -12 -12z"/>
<path d="M4 245 c-8 -19 3 -35 26 -35 19 0 30 17 23 38 -6 17 -42 15 -49 -3z"/>
<path d="M288 233 c7 -3 16 -2 19 1 4 3 -2 6 -13 5 -11 0 -14 -3 -6 -6z"/>
<path d="M67 210 c-49 -39 -24 -110 38 -110 19 0 37 5 40 11 11 16 -1 22 -23
10 -24 -13 -62 11 -62 39 0 29 29 52 56 46 14 -4 24 -2 24 4 0 5 -4 10 -9 10
-5 0 -16 2 -23 5 -8 3 -26 -4 -41 -15z"/>
<path d="M285 200 c-3 -5 3 -10 14 -10 12 0 21 5 21 10 0 6 -6 10 -14 10 -8 0
-18 -4 -21 -10z"/>
<path d="M285 160 c3 -5 10 -10 16 -10 5 0 9 5 9 10 0 6 -7 10 -16 10 -8 0
-12 -4 -9 -10z"/>
<path d="M288 118 c9 -9 15 -9 24 0 9 9 7 12 -12 12 -19 0 -21 -3 -12 -12z"/>
</g>
</svg>
