<?xml version="1.0" standalone="no"?>
<!DOCTYPE svg PUBLIC "-//W3C//DTD SVG 20010904//EN"
 "http://www.w3.org/TR/2001/REC-SVG-20010904/DTD/svg10.dtd">
<svg version="1.0" xmlns="http://www.w3.org/2000/svg"
 width="32.000000pt" height="32.000000pt" viewBox="0 0 32.000000 32.000000"
 preserveAspectRatio="xMidYMid meet">

<g transform="translate(0.000000,32.000000) scale(0.100000,-0.100000)"
fill="#000000" stroke="none">
<path d="M63 300 c-39 -24 -53 -48 -55 -99 -3 -77 59 -128 141 -117 44 6 47 5
93 -41 44 -44 49 -46 64 -31 15 15 13 20 -34 70 -38 40 -48 57 -42 68 17 26
11 83 -12 117 -37 53 -100 67 -155 33z m87 -30 c17 0 50 -44 50 -66 0 -36 -11
-54 -42 -70 -69 -36 -135 36 -97 107 12 23 47 40 67 33 8 -2 18 -4 22 -4z"/>
</g>
</svg>
