<?xml version="1.0" standalone="no"?>
<!DOCTYPE svg PUBLIC "-//W3C//DTD SVG 20010904//EN"
 "http://www.w3.org/TR/2001/REC-SVG-20010904/DTD/svg10.dtd">
<svg version="1.0" xmlns="http://www.w3.org/2000/svg"
 width="32.000000pt" height="32.000000pt" viewBox="0 0 32.000000 32.000000"
 preserveAspectRatio="xMidYMid meet">

<g transform="translate(0.000000,32.000000) scale(0.100000,-0.100000)"
fill="#000000" stroke="none">
<path d="M90 289 c-7 -11 -18 -18 -25 -15 -27 10 -59 -53 -62 -122 -3 -78 13
-113 61 -136 42 -20 59 -20 97 -1 27 14 31 14 45 0 8 -8 23 -15 33 -15 22 0
51 31 51 55 0 25 -39 85 -55 85 -10 0 -25 20 -25 34 0 2 25 2 55 1 36 -1 54 2
52 9 -2 6 -29 11 -60 12 -32 0 -60 3 -63 7 -15 15 11 23 68 21 57 -3 61 -2 43
12 -11 8 -26 12 -35 8 -8 -3 -22 -6 -30 -5 -8 1 -27 2 -42 2 -18 0 -34 10 -53
34 -30 40 -40 43 -55 14z m40 -24 c6 -8 9 -19 6 -24 -4 -6 3 -15 14 -21 26
-14 26 -30 0 -23 -11 3 -20 0 -20 -6 0 -6 14 -14 32 -19 43 -11 55 -48 33 -96
-30 -62 -113 -72 -155 -19 -24 31 -28 88 -5 79 23 -8 62 10 67 32 3 10 0 32
-7 48 -8 21 -9 34 -1 47 13 21 20 21 36 2z m-46 -88 c-8 -21 -34 -30 -50 -16
-18 15 -18 34 3 65 l16 25 19 -29 c10 -16 16 -36 12 -45z m172 -84 c20 -27 17
-61 -6 -68 -38 -12 -49 10 -30 59 11 31 18 32 36 9z"/>
</g>
</svg>
