<?xml version="1.0" standalone="no"?>
<!DOCTYPE svg PUBLIC "-//W3C//DTD SVG 20010904//EN"
 "http://www.w3.org/TR/2001/REC-SVG-20010904/DTD/svg10.dtd">
<svg version="1.0" xmlns="http://www.w3.org/2000/svg"
 width="32.000000pt" height="32.000000pt" viewBox="0 0 32.000000 32.000000"
 preserveAspectRatio="xMidYMid meet">

<g transform="translate(0.000000,32.000000) scale(0.100000,-0.100000)"
fill="#000000" stroke="none">
<path d="M127 274 c-4 -4 -7 -17 -7 -28 1 -20 2 -20 14 -3 18 23 46 22 46 -3
0 -17 -8 -20 -85 -22 -47 -2 -86 -7 -88 -13 -3 -14 133 -18 167 -5 23 8 27 15
24 42 -3 29 -7 33 -33 36 -17 2 -34 0 -38 -4z"/>
<path d="M248 229 c-18 -10 -25 -39 -9 -39 5 0 14 7 21 15 10 12 16 13 26 4
11 -9 11 -15 3 -25 -9 -11 -45 -14 -150 -14 -86 0 -139 -4 -139 -10 0 -6 57
-10 150 -10 137 0 150 2 160 19 14 27 13 37 -6 55 -18 18 -32 20 -56 5z"/>
<path d="M7 124 c-16 -17 11 -24 89 -24 77 0 84 -2 84 -20 0 -25 -28 -26 -47
-2 -12 16 -13 15 -11 -8 3 -21 8 -25 38 -25 32 0 35 3 38 33 3 27 -1 34 -23
42 -29 11 -158 14 -168 4z"/>
</g>
</svg>
