<?xml version="1.0" standalone="no"?>
<!DOCTYPE svg PUBLIC "-//W3C//DTD SVG 20010904//EN"
 "http://www.w3.org/TR/2001/REC-SVG-20010904/DTD/svg10.dtd">
<svg version="1.0" xmlns="http://www.w3.org/2000/svg"
 width="32.000000pt" height="32.000000pt" viewBox="0 0 32.000000 32.000000"
 preserveAspectRatio="xMidYMid meet">

<g transform="translate(0.000000,32.000000) scale(0.100000,-0.100000)"
fill="#000000" stroke="none">
<path d="M145 301 c-39 -18 -145 -120 -145 -140 0 -20 107 -125 145 -142 45
-21 75 -24 75 -9 0 6 -9 10 -21 10 -16 0 -19 4 -14 18 45 105 45 139 0 245 -5
13 -2 17 14 17 12 0 21 5 21 10 0 15 -31 12 -75 -9z m7 -45 c-57 -62 -57 -130
0 -192 11 -12 15 -25 10 -28 -13 -8 -82 44 -115 87 l-28 37 28 37 c33 43 102
95 115 87 5 -3 1 -16 -10 -28z m38 -32 c19 -48 6 -154 -18 -154 -15 0 -42 58
-42 90 0 34 25 90 41 90 5 0 14 -12 19 -26z"/>
<path d="M154 165 c0 -19 4 -35 8 -35 11 0 21 47 13 59 -12 21 -21 11 -21 -24z"/>
<path d="M260 225 c-13 -14 -20 -28 -17 -32 8 -7 57 35 57 49 0 15 -16 8 -40
-17z"/>
<path d="M240 160 c0 -5 18 -10 40 -10 22 0 40 5 40 10 0 6 -18 10 -40 10 -22
0 -40 -4 -40 -10z"/>
<path d="M240 122 c0 -14 49 -56 57 -49 3 4 -4 18 -17 32 -24 25 -40 32 -40
17z"/>
</g>
</svg>
